<?xml version="1.0" standalone="no"?>
<!DOCTYPE svg PUBLIC "-//W3C//DTD SVG 20010904//EN"
 "http://www.w3.org/TR/2001/REC-SVG-20010904/DTD/svg10.dtd">
<svg version="1.0" xmlns="http://www.w3.org/2000/svg"
 width="1257.000000pt" height="943.000000pt" viewBox="0 0 1257.000000 943.000000"
 preserveAspectRatio="xMidYMid meet">
<metadata>
Created by potrace 1.13, written by Peter Selinger 2001-2015
</metadata>
<g transform="translate(0.000000,943.000000) scale(0.100000,-0.100000)"
fill="#111" stroke="none">
<path d="M8118 9096 c-1 -2 -55 -6 -118 -9 -162 -9 -215 -20 -326 -72 -40 -19
-97 -40 -127 -48 -59 -16 -81 -32 -206 -158 -108 -107 -337 -365 -414 -464 -4
-5 -19 -23 -33 -40 -14 -16 -50 -64 -82 -105 -31 -41 -59 -77 -63 -80 -3 -3
-43 -57 -88 -120 -44 -63 -86 -120 -91 -127 -6 -7 -10 -16 -10 -20 0 -5 -11
-24 -24 -43 -12 -19 -29 -58 -35 -87 -9 -38 -26 -67 -62 -108 -56 -64 -64 -77
-73 -124 -3 -18 -26 -59 -50 -92 -57 -76 -141 -276 -107 -255 6 4 11 16 11 26
0 10 18 37 39 59 40 42 68 54 57 25 -3 -9 -9 -27 -12 -40 -3 -13 -14 -26 -23
-29 -13 -4 -17 -15 -15 -48 2 -33 -2 -46 -19 -59 -18 -14 -22 -28 -24 -79 -1
-35 2 -70 7 -78 10 -18 12 -14 24 39 8 33 47 79 53 63 5 -15 43 -17 43 -3 0 6
14 29 30 52 17 22 30 46 30 53 0 13 85 88 112 98 10 3 23 0 30 -7 7 -7 19 -11
27 -8 18 6 31 -16 31 -55 0 -23 5 -33 16 -33 8 0 13 -4 10 -9 -7 -10 17 -21
45 -21 10 0 19 7 19 15 0 8 5 15 10 15 6 0 10 -19 10 -42 0 -36 -2 -40 -13
-24 -12 16 -14 16 -37 -2 -37 -28 -89 -54 -99 -48 -9 6 -61 -30 -74 -51 -5 -8
-11 -12 -15 -9 -4 2 -7 -8 -8 -24 -1 -15 -6 -34 -12 -41 -6 -8 -25 -30 -42
-50 -22 -28 -30 -47 -30 -77 0 -23 -5 -43 -12 -45 -8 -3 -6 -6 5 -6 27 -1 20
-21 -9 -21 -14 0 -23 -4 -19 -10 3 -5 17 -10 29 -10 19 0 25 7 30 33 3 19 20
46 36 62 17 16 30 34 30 39 0 6 14 19 30 28 17 10 37 33 45 52 15 36 40 56 71
56 15 0 14 -4 -6 -25 -13 -14 -18 -25 -12 -25 7 0 12 4 12 9 0 5 7 11 15 15
13 4 14 2 5 -14 -8 -15 -8 -20 1 -20 8 0 6 -7 -4 -18 -19 -21 -22 -32 -7 -32
17 0 112 99 105 110 -8 13 31 54 43 46 6 -3 13 -24 17 -47 5 -30 11 -39 23
-37 13 3 17 14 17 43 0 34 3 40 23 43 12 2 22 10 22 18 0 8 9 14 20 14 11 0
20 5 20 10 0 6 7 10 15 10 23 0 55 32 55 55 0 12 6 27 13 34 10 10 8 15 -8 27
-20 15 -19 16 18 50 44 40 65 84 42 84 -8 0 -15 5 -15 10 0 6 8 10 18 10 28 0
34 11 14 27 -15 12 -14 13 10 7 22 -5 35 2 72 37 52 49 56 59 24 59 -22 0 -22
0 -2 14 11 8 33 18 48 22 25 6 28 5 21 -15 -3 -12 -2 -21 3 -21 6 0 13 18 17
40 4 22 11 40 17 40 5 0 6 9 3 20 -5 16 -2 20 14 20 14 0 21 -6 21 -20 0 -11
7 -20 16 -20 11 0 14 6 8 23 -3 12 -11 27 -16 34 -14 17 0 35 22 28 14 -4 16
-1 13 20 -6 28 28 64 60 65 10 0 15 5 12 10 -3 6 5 14 19 20 34 12 64 59 46
70 -24 15 -115 -19 -178 -67 -24 -18 -50 -33 -58 -33 -8 0 -13 -6 -11 -12 2
-14 -81 -13 -96 1 -8 8 34 66 65 89 9 7 20 28 24 47 3 20 10 38 16 41 5 3 6
14 3 24 -4 13 0 20 15 25 11 3 20 10 20 15 0 5 3 15 6 24 4 11 1 16 -10 16 -9
0 -16 -5 -16 -11 0 -5 -5 -7 -12 -3 -14 9 34 33 67 34 18 1 75 42 75 55 0 14
-27 2 -44 -20 -10 -14 -26 -25 -34 -25 -11 0 -9 5 6 19 12 10 22 23 22 28 0 5
26 16 58 23 62 13 110 35 55 25 -26 -5 -33 -3 -33 9 0 9 -4 16 -10 16 -5 0
-10 4 -10 9 0 10 57 25 87 22 12 -1 39 3 61 7 36 8 39 8 35 -9 -3 -11 -12 -19
-20 -19 -14 0 -44 -28 -62 -60 -14 -24 22 -23 107 2 52 15 76 18 81 10 3 -6
20 -16 36 -22 26 -10 32 -9 46 9 10 12 24 21 33 21 9 0 16 6 16 14 0 9 16 17
43 21 23 4 52 16 65 28 16 15 25 18 33 10 9 -9 16 -8 27 4 11 10 25 13 46 8
17 -3 47 -8 66 -11 29 -4 31 -3 15 6 -17 9 -14 10 13 5 18 -2 31 -1 28 4 -7
10 17 21 45 21 21 0 26 -15 7 -24 -7 -3 -3 -3 8 -1 12 3 34 1 49 -5 22 -8 30
-8 37 2 7 10 11 9 18 -4 15 -24 74 -42 99 -29 38 21 63 12 108 -36 40 -42 43
-48 28 -59 -9 -7 -14 -17 -10 -23 10 -16 45 -13 45 4 0 8 5 15 11 15 5 0 9
-10 7 -22 -2 -17 3 -22 27 -25 17 -2 42 -8 58 -14 20 -9 31 -8 42 1 10 8 32
11 61 7 33 -3 47 -1 51 9 7 20 18 17 49 -11 16 -15 24 -31 20 -40 -8 -21 -22
-19 -40 7 -9 12 -16 17 -16 10 0 -6 -7 -12 -15 -12 -8 0 -15 4 -15 9 0 4 -18
8 -40 8 -22 0 -40 -4 -40 -8 0 -5 13 -9 29 -9 18 0 41 -11 61 -30 18 -17 41
-29 54 -28 22 2 44 -11 141 -84 28 -21 55 -38 61 -38 5 0 26 -18 45 -40 19
-22 40 -40 48 -40 11 0 11 3 1 15 -7 9 -10 18 -8 21 3 3 15 -6 26 -20 11 -15
24 -26 30 -26 13 0 72 -52 72 -63 0 -5 -11 -6 -25 -3 -30 8 -31 0 -5 -34 l19
-25 21 23 c11 12 23 22 25 22 2 0 14 -14 26 -31 18 -25 19 -33 8 -39 -7 -5
-10 -12 -6 -16 3 -4 13 -1 22 6 19 16 49 5 41 -15 -4 -11 3 -20 22 -27 l27
-12 -32 -4 c-37 -4 -37 -5 -23 -33 7 -12 21 -19 40 -19 15 0 30 -6 33 -12 3
-10 11 -10 38 1 53 21 79 25 79 12 0 -6 -10 -16 -22 -21 -19 -7 -16 -9 19 -9
33 -1 41 -4 37 -15 -3 -8 4 -23 15 -33 26 -22 26 -29 1 -36 -13 -3 -20 -14
-20 -30 0 -34 7 -37 58 -27 63 11 70 -11 20 -64 l-40 -41 38 -3 c21 -2 40 1
42 7 6 17 42 13 42 -4 0 -9 -9 -15 -25 -15 -16 0 -25 -6 -25 -15 0 -8 6 -15
14 -15 7 0 19 7 26 15 17 20 45 19 67 -3 10 -10 30 -24 46 -31 15 -8 27 -22
27 -32 0 -9 2 -24 5 -31 4 -11 -9 -18 -50 -28 -49 -12 -57 -11 -68 2 -6 9 -30
18 -52 20 -22 3 -47 8 -56 12 -11 5 -28 -4 -53 -29 -26 -25 -43 -34 -56 -30
-10 3 -21 1 -25 -5 -4 -6 7 -10 30 -10 20 0 34 -4 31 -8 -3 -5 -33 -5 -67 0
-33 4 -65 6 -69 3 -5 -3 -10 0 -12 5 -2 6 -12 12 -23 14 -14 2 -21 12 -23 34
-3 25 -9 32 -33 37 -17 4 -43 1 -60 -6 -23 -9 -33 -9 -42 0 -13 13 -57 15 -57
3 0 -4 5 -13 12 -20 9 -9 9 -12 -1 -12 -7 0 -10 -7 -6 -19 3 -10 -1 -24 -10
-31 -15 -13 -11 -35 6 -25 10 7 13 -27 10 -120 -1 -33 -2 -64 -2 -70 1 -5 2
-41 4 -80 l2 -70 33 -3 c36 -4 39 -9 15 -28 -17 -12 -17 -14 4 -33 26 -25 64
-32 70 -13 3 7 -7 15 -26 18 -17 4 -31 10 -31 15 0 14 28 11 60 -6 27 -14 30
-14 30 0 0 9 -10 15 -22 16 -21 1 -21 2 -3 6 11 3 26 10 32 15 17 14 46 1 40
-16 -4 -9 13 -21 51 -37 138 -58 294 -187 196 -163 -14 4 -24 2 -24 -5 0 -6
11 -11 24 -11 24 0 56 -23 56 -40 0 -5 -7 -7 -15 -4 -9 4 -15 0 -15 -9 0 -8
-13 -17 -32 -21 -43 -9 -25 -22 40 -29 47 -6 52 -4 52 14 0 24 27 36 43 19 9
-10 7 -11 -10 -5 -18 5 -23 2 -23 -13 0 -11 7 -23 16 -26 13 -5 14 -9 4 -21
-7 -8 -9 -15 -6 -15 12 0 -44 -75 -57 -76 -6 0 -22 -2 -34 -2 -18 -2 -23 -8
-24 -29 0 -16 -4 -37 -8 -48 -5 -11 -5 -29 -1 -40 10 -26 -5 -65 -25 -65 -8 0
-15 5 -15 12 0 19 -15 -2 -17 -25 -7 -64 -17 -99 -29 -104 -8 -3 -14 -13 -14
-23 0 -10 -7 -20 -15 -24 -8 -3 -15 -1 -15 4 0 20 -19 9 -22 -12 -2 -18 -12
-24 -48 -31 -25 -5 -47 -12 -50 -16 -7 -10 -51 -21 -45 -11 3 4 -2 13 -10 20
-13 11 -12 15 5 37 21 26 27 48 11 39 -5 -3 -14 1 -21 9 -7 8 -16 12 -22 9 -5
-3 -19 1 -31 9 -19 12 -22 22 -20 73 1 33 -3 81 -9 108 -6 28 -7 51 -1 55 13
9 -4 109 -27 151 -6 11 -4 31 5 58 15 44 11 72 -10 72 -14 0 -29 -28 -26 -48
1 -7 -7 -25 -19 -41 -11 -16 -20 -34 -20 -40 0 -12 2 -12 -60 -16 -58 -4 -80
2 -73 21 4 10 -2 14 -21 14 -16 0 -26 6 -26 14 0 14 -63 31 -79 21 -14 -8 -41
5 -41 21 0 7 -14 21 -30 29 -17 9 -28 20 -25 25 3 5 -5 18 -17 29 -17 16 -30
20 -54 15 -18 -3 -41 -1 -52 5 -13 7 -39 7 -81 0 -60 -9 -101 -1 -101 20 0 5
20 35 45 67 58 77 61 80 86 97 26 19 18 57 -12 57 -31 0 -61 -20 -55 -36 3 -9
-2 -17 -12 -21 -9 -3 -23 -11 -31 -17 -21 -16 -100 -35 -149 -36 -42 0 -72
-17 -72 -40 0 -7 -8 -9 -20 -5 -14 5 -20 2 -20 -9 0 -10 -9 -16 -22 -16 -13 0
-36 -9 -53 -20 -16 -11 -24 -20 -16 -20 8 0 11 -3 7 -7 -4 -4 -15 -8 -24 -8
-11 0 -16 -7 -15 -22 2 -16 -4 -23 -25 -28 -28 -6 -92 -58 -92 -76 0 -5 -6 -9
-13 -9 -14 0 -37 -40 -37 -64 0 -8 -7 -16 -15 -20 -8 -3 -15 -10 -15 -17 0 -6
-11 -20 -25 -30 -14 -12 -22 -26 -18 -34 6 -18 44 -20 41 -3 -2 6 15 16 37 22
23 6 57 21 77 34 19 12 46 22 59 23 13 0 18 3 11 6 -18 7 4 33 29 33 10 0 30
5 44 12 18 8 29 8 36 1 7 -7 18 -4 34 11 16 14 20 23 12 28 -7 4 1 8 18 8 35
0 49 8 58 33 4 10 17 17 33 17 25 0 26 -2 21 -36 -4 -25 -1 -44 11 -62 9 -14
17 -33 17 -41 0 -11 10 -16 28 -17 16 -1 35 -8 44 -17 14 -14 14 -16 -5 -28
-17 -10 -18 -17 -10 -41 6 -17 17 -28 28 -28 10 0 20 -7 24 -15 3 -8 12 -15
21 -15 16 0 15 19 -6 84 -5 16 -9 30 -9 32 0 2 16 -12 35 -31 19 -19 43 -35
55 -35 11 0 20 -7 20 -15 0 -8 7 -15 15 -15 9 0 15 -9 14 -22 0 -13 -3 -17 -6
-10 -2 6 -12 12 -20 12 -12 0 -13 -3 -3 -15 6 -8 9 -18 6 -24 -8 -12 19 -22
31 -10 15 15 75 13 117 -5 36 -15 38 -18 32 -51 -6 -28 -3 -37 10 -42 9 -3 20
0 24 7 5 9 9 9 14 1 4 -6 0 -14 -8 -17 -9 -3 -13 -10 -10 -15 3 -5 9 -7 13 -5
4 3 8 -5 8 -16 1 -11 10 -29 19 -39 12 -13 15 -29 11 -53 -5 -29 -2 -36 14
-41 10 -4 19 -11 19 -16 0 -6 5 -7 10 -4 6 3 10 17 10 30 0 28 23 38 65 27 25
-7 31 -14 33 -43 7 -68 1 -173 -10 -180 -7 -4 -8 -20 -4 -44 6 -28 3 -42 -9
-55 -9 -10 -14 -24 -10 -29 3 -6 -2 -25 -12 -42 -13 -24 -15 -33 -5 -36 6 -3
12 -11 12 -19 0 -21 17 -17 42 9 13 12 32 27 43 33 11 5 20 19 19 32 0 15 5
22 18 22 17 0 22 10 19 38 -1 6 2 12 6 12 19 -1 33 -18 35 -45 2 -17 9 -30 20
-33 24 -6 23 -24 -4 -41 l-21 -13 23 -18 c23 -18 23 -18 6 -45 -14 -21 -15
-29 -5 -35 18 -12 -8 -69 -38 -81 -12 -4 -23 -15 -23 -22 0 -22 -35 -56 -69
-68 -25 -9 -29 -14 -20 -25 6 -8 8 -14 3 -14 -4 0 -3 -5 4 -12 12 -12 -1 -48
-19 -48 -6 0 -7 5 -4 10 9 15 -4 30 -20 23 -18 -6 -20 -33 -2 -33 6 0 2 -8 -9
-18 -20 -16 -44 -52 -44 -67 0 -3 10 -10 23 -14 19 -8 20 -10 5 -16 -11 -4
-27 1 -44 14 -37 29 -72 27 -86 -4 -12 -26 -32 -33 -43 -15 -3 6 -15 10 -25
10 -10 0 -21 8 -23 18 -4 16 -5 16 -6 0 0 -10 -5 -18 -9 -18 -14 0 -33 -48
-22 -55 6 -4 10 -11 10 -17 0 -7 -16 -8 -45 -4 -42 7 -46 5 -57 -19 -9 -21
-17 -25 -42 -23 -33 3 -38 23 -6 23 11 0 26 10 35 22 14 20 14 23 -2 32 -17 9
-17 10 0 16 9 4 26 5 38 2 16 -4 18 -3 8 9 -9 11 -7 14 10 14 12 0 19 4 16 10
-3 5 5 15 19 21 14 7 23 16 20 21 -3 5 3 12 14 15 22 5 19 30 -6 49 -8 5 -15
28 -15 50 -2 29 -6 38 -17 35 -8 -2 -27 -3 -42 -2 -22 1 -28 -3 -28 -19 0 -25
-44 -55 -67 -45 -16 7 -15 9 7 16 19 7 14 8 -22 5 -34 -2 -45 0 -42 9 6 14
-39 26 -57 15 -8 -6 -6 -11 7 -18 15 -8 11 -10 -21 -10 -23 0 -33 3 -25 8 11
7 10 13 -4 34 -9 14 -21 26 -27 26 -6 0 -9 7 -6 15 6 14 -7 28 -28 31 -30 4
-55 18 -55 31 0 9 -6 13 -15 9 -9 -3 -15 0 -15 9 0 8 -8 15 -18 15 -10 0 -23
5 -29 11 -13 13 -112 8 -115 -6 -2 -5 17 -14 40 -19 30 -6 41 -13 38 -23 -4
-9 3 -13 19 -13 15 0 25 -6 25 -14 0 -8 11 -17 25 -20 14 -4 34 -15 44 -25 10
-10 34 -21 53 -25 29 -5 37 -12 45 -39 8 -27 14 -32 36 -30 27 2 36 -10 16
-22 -6 -4 -8 -13 -5 -20 8 -23 -8 -26 -20 -4 -11 21 -11 21 -18 -5 -7 -29 -32
-30 -29 -2 0 11 -4 15 -13 12 -8 -3 -14 -1 -14 4 0 6 -7 10 -15 10 -8 0 -15
-4 -15 -9 0 -5 7 -11 15 -15 19 -7 20 -26 1 -26 -8 0 -16 -6 -19 -13 -4 -10 2
-13 19 -9 14 2 24 0 24 -7 0 -6 -5 -11 -10 -11 -6 0 -20 -11 -32 -25 -17 -20
-28 -24 -50 -20 -17 4 -28 2 -28 -4 0 -6 5 -11 10 -11 6 0 10 -7 10 -16 0 -10
-6 -13 -18 -10 -13 4 -19 1 -19 -9 0 -10 12 -18 29 -22 33 -6 37 -18 8 -26
-11 -3 -20 -13 -20 -22 0 -13 -6 -15 -29 -10 -25 5 -31 2 -42 -24 -16 -36 -23
-39 -71 -33 -26 3 -35 8 -31 18 3 9 -2 14 -16 14 -12 0 -24 7 -27 15 -4 10
-21 15 -53 15 -30 0 -55 7 -71 20 -27 21 -60 26 -60 10 0 -5 5 -10 10 -10 6 0
10 -7 10 -16 0 -13 -7 -15 -30 -11 -16 4 -29 3 -29 -1 3 -20 -3 -32 -16 -32
-18 0 -19 12 -4 27 9 9 -2 18 -40 35 -28 13 -51 29 -51 37 0 10 3 11 14 2 11
-9 15 -8 20 5 5 13 1 15 -21 11 -16 -3 -41 -2 -58 3 -16 5 -43 12 -59 15 -20
4 -26 9 -18 17 7 7 3 18 -14 37 -13 14 -23 33 -22 42 2 9 -3 23 -11 32 -12 15
-10 17 15 18 29 1 29 1 4 8 -17 5 -21 9 -12 15 20 12 14 35 -13 42 -14 3 -25
10 -25 16 0 5 -4 7 -9 4 -5 -4 -7 3 -4 14 6 23 -10 26 -51 10 -31 -11 -34 -1
-6 23 24 21 18 37 -14 37 -31 0 -39 11 -18 26 26 19 7 28 -40 18 -28 -6 -44
-15 -46 -27 -4 -20 21 -49 39 -45 7 2 15 -5 17 -14 3 -15 -4 -18 -35 -18 -34
-1 -36 -2 -20 -14 9 -7 17 -21 17 -30 0 -9 4 -16 10 -16 18 0 42 -68 35 -100
-6 -26 -4 -30 14 -30 18 0 20 4 15 24 -3 13 -1 27 5 30 7 4 8 1 5 -8 -4 -11 0
-16 15 -16 34 0 24 -23 -20 -48 -40 -23 -41 -23 -46 -3 -3 11 -8 19 -12 17 -4
-3 -7 5 -6 17 0 20 -14 37 -16 20 0 -5 -5 -14 -11 -20 -6 -7 -8 -19 -5 -27 3
-8 -2 -17 -11 -21 -15 -6 -14 -9 6 -25 l23 -19 -20 -13 c-26 -16 -27 -36 -3
-54 16 -13 16 -13 0 -14 -10 0 -18 5 -18 10 0 6 -9 10 -20 10 -11 0 -20 4 -20
10 0 5 -6 9 -12 7 -8 -1 -12 7 -11 18 1 11 -4 23 -10 27 -7 5 -3 8 11 8 26 0
30 18 6 27 -10 4 -20 0 -26 -10 -10 -18 -38 -23 -38 -7 0 6 -7 10 -15 10 -8 0
-19 9 -25 20 -6 11 -17 20 -24 20 -8 0 -16 6 -19 14 -3 8 -22 20 -41 27 -48
17 -50 48 -3 50 30 1 30 2 -8 8 -74 13 -112 51 -50 51 28 0 37 11 26 29 -7 10
-13 10 -30 2 -11 -6 -31 -9 -45 -5 -17 4 -27 1 -33 -11 -9 -15 -11 -15 -26 -1
-9 9 -23 13 -33 9 -14 -5 -16 -2 -10 18 18 59 19 69 2 69 -20 0 -21 14 -1 30
12 10 16 9 21 -6 3 -11 10 -27 15 -37 7 -13 5 -19 -6 -23 -28 -11 -15 -24 23
-23 55 1 86 13 90 32 4 21 -14 22 -35 2 -20 -21 -39 -14 -35 13 2 16 -4 25
-23 34 -20 9 -25 18 -23 37 3 22 8 26 36 25 17 -1 32 3 32 8 0 6 -19 8 -45 6
-65 -5 -51 15 20 29 59 11 94 38 76 56 -12 12 -31 0 -31 -19 0 -17 -5 -17 -31
-4 -13 7 -19 7 -19 0 0 -5 -8 -10 -17 -9 -15 0 -15 2 4 15 12 9 32 24 44 35
12 10 27 19 32 19 6 0 18 7 27 15 14 13 21 12 62 -10 40 -21 48 -23 58 -10 9
11 9 15 1 15 -6 0 -11 5 -11 10 0 6 6 10 14 10 9 0 12 7 9 21 -4 12 0 25 8 31
10 7 6 8 -13 4 -16 -4 -28 -2 -28 4 0 5 9 10 21 10 11 0 29 5 40 10 14 8 19 7
19 -1 0 -8 15 -10 49 -5 27 3 56 4 65 0 18 -7 22 -25 5 -21 -6 1 -14 -4 -16
-12 -4 -9 0 -11 16 -6 12 4 21 2 21 -4 0 -6 -8 -11 -17 -11 -10 0 -25 -4 -32
-9 -10 -6 0 -8 27 -4 44 6 60 -10 21 -22 -24 -8 -22 -38 4 -43 10 -2 16 2 14
10 -2 7 -2 10 0 6 6 -10 37 -10 46 -1 4 3 -2 13 -13 20 -16 11 -18 18 -10 34
13 23 33 24 54 3 14 -14 17 -14 22 0 7 19 -3 36 -22 36 -8 0 -14 4 -14 9 0 15
18 23 25 11 4 -6 22 -8 43 -5 25 4 32 3 24 -3 -11 -7 -7 -11 13 -16 15 -4 30
-5 33 -1 3 3 1 5 -5 5 -6 0 -9 9 -6 20 3 12 -1 22 -11 26 -9 3 -16 12 -16 18
0 7 -10 12 -22 12 -18 -1 -22 4 -20 21 2 12 -3 33 -10 45 -7 13 -13 34 -13 48
-1 20 -5 24 -23 22 -16 -2 -23 3 -28 25 -7 31 -69 113 -85 113 -6 0 -17 -7
-25 -15 -9 -8 -21 -15 -27 -14 -9 0 -8 2 1 6 6 2 12 18 12 35 0 26 -3 30 -21
25 -30 -8 -57 52 -41 88 7 14 12 35 12 47 0 16 -4 19 -24 14 -29 -7 -46 11
-20 21 16 6 16 7 -2 14 -17 7 -17 8 -1 8 26 1 21 31 -5 31 -19 0 -20 2 -8 10
8 5 23 7 33 4 12 -4 17 0 17 16 0 17 -4 20 -20 15 -18 -6 -20 -2 -20 34 0 26
5 41 13 41 9 0 8 3 -2 9 -8 5 -10 14 -6 21 4 7 2 16 -6 20 -10 7 -10 12 -1 23
7 7 9 17 5 21 -8 8 15 26 35 26 6 0 12 -9 12 -21 0 -14 5 -19 18 -17 13 3 16
12 14 36 -2 21 1 32 10 32 8 0 7 4 -4 11 -19 11 -13 43 7 35 7 -2 21 4 31 15
17 18 17 20 -2 34 -23 17 -31 18 -39 5 -3 -5 0 -10 7 -11 7 0 3 -4 -9 -9 -13
-5 -23 -14 -23 -20 0 -5 -7 -10 -16 -10 -11 0 -14 5 -9 18 4 9 8 24 9 32 2 22
-45 14 -67 -12 -13 -16 -21 -18 -29 -10 -9 9 -9 12 0 12 7 0 12 6 12 14 0 8 9
18 20 21 20 6 29 45 10 45 -13 0 -13 37 0 45 11 7 3 33 -18 58 -14 15 -13 19
3 37 18 19 17 20 -3 20 -11 0 -23 -6 -26 -12 -3 -7 -4 3 -1 22 l5 35 -48 2
-47 1 43 -9 c42 -10 49 -29 11 -29 -27 0 -27 -65 0 -80 27 -14 30 -13 24 13
-4 21 -4 21 8 3 16 -25 20 -84 7 -92 -7 -4 -6 -9 1 -14 7 -3 -2 -7 -18 -7 -29
0 -30 1 -11 14 26 18 25 37 -2 55 -29 18 -58 12 -58 -13 0 -10 -6 -19 -14 -19
-24 0 -38 -26 -22 -39 16 -14 19 -88 4 -108 -6 -7 -1 -17 14 -27 18 -13 19
-16 5 -16 -21 0 -23 -26 -2 -34 19 -7 20 -46 1 -46 -8 0 -18 9 -21 20 -6 20
-45 29 -45 9 0 -5 -4 -7 -10 -4 -5 3 -10 17 -10 31 0 15 -6 24 -16 24 -11 0
-13 -6 -8 -22 4 -13 8 -49 8 -80 1 -44 -3 -58 -15 -61 -10 -3 -16 1 -15 12 0
9 -4 15 -10 14 -7 -1 -15 12 -18 30 -6 27 -8 30 -17 15 -13 -24 -25 -23 -32 2
-3 11 -1 20 5 20 5 0 6 5 3 10 -4 6 -15 8 -26 5 -13 -4 -19 -2 -19 9 0 9 5 16
10 16 6 0 10 12 10 26 0 21 4 24 20 19 14 -4 20 -2 20 8 0 9 -5 17 -11 19 -8
3 -9 10 -2 23 6 11 13 46 17 78 5 44 2 63 -9 81 -11 16 -13 26 -6 31 6 3 11
13 11 22 0 8 9 28 21 45 21 28 21 30 3 44 -18 15 -18 15 2 11 17 -4 20 0 16
27 -3 17 -11 37 -19 44 -7 8 -11 22 -8 32 3 10 1 21 -5 25 -5 3 -7 17 -4 31 5
20 2 24 -15 24 -27 0 -38 -26 -23 -51 16 -25 15 -29 -6 -29 -24 0 -58 -37 -66
-72 -5 -20 -13 -28 -29 -28 -18 0 -25 -9 -36 -47 -7 -27 -13 -64 -14 -83 -2
-24 -7 -35 -17 -35 -10 0 -14 8 -13 23 2 12 -1 22 -6 22 -15 0 -21 -29 -15
-68 10 -61 11 -76 2 -94 -7 -14 -4 -18 9 -18 11 -1 4 -7 -16 -15 -41 -18 -41
-18 -41 0 0 22 -23 18 -38 -6 -35 -55 -141 -60 -171 -8 -10 18 -24 29 -38 29
-29 0 -71 43 -75 77 -4 34 -48 54 -78 35 -53 -33 -76 -2 -86 113 -8 106 -8 93
1 220 3 55 11 116 16 135 5 19 8 67 8 105 -1 61 -2 66 -10 35 -5 -19 -11 -69
-14 -110 -7 -104 -14 -146 -32 -199 -18 -55 -57 -133 -75 -153 -45 -48 -52
-59 -35 -52 34 13 17 -25 -37 -83 -29 -32 -65 -71 -79 -86 -18 -20 -27 -24
-31 -15 -3 7 -4 3 -2 -10 2 -12 0 -20 -4 -17 -5 3 -18 -20 -29 -50 -24 -64
-27 -92 -6 -55 13 23 14 20 12 -50 -1 -41 2 -96 6 -122 10 -59 -7 -65 -30 -11
-11 27 -14 56 -10 98 l5 60 -15 -50 c-9 -32 -15 -97 -16 -177 -2 -116 0 -129
20 -156 12 -16 45 -76 74 -133 32 -61 71 -121 98 -148 39 -40 45 -52 44 -87 0
-26 -11 -61 -30 -97 -25 -45 -27 -55 -13 -47 26 14 30 13 30 -10 0 -36 54
-105 72 -94 5 3 8 -2 8 -11 0 -10 11 -26 25 -37 13 -10 30 -37 36 -59 8 -26
15 -35 20 -27 6 10 9 9 13 -2 2 -8 12 -38 21 -67 9 -28 26 -62 39 -75 12 -12
35 -41 51 -63 16 -22 59 -71 96 -110 132 -138 244 -267 309 -355 37 -50 87
-110 163 -197 37 -43 119 -145 181 -228 146 -193 212 -259 337 -336 l102 -63
-44 -39 c-24 -21 -64 -52 -89 -70 -25 -17 -141 -102 -258 -190 -186 -139 -211
-161 -202 -177 10 -19 62 -60 76 -60 19 0 103 47 107 60 2 8 16 22 31 30 27
14 29 13 64 -25 21 -22 64 -76 97 -119 33 -44 84 -106 114 -138 l54 -59 -16
-57 c-27 -93 -45 -199 -57 -337 -7 -71 -16 -140 -22 -154 -41 -110 -53 -311
-39 -681 12 -313 23 -451 52 -640 10 -69 21 -156 24 -195 5 -72 14 -410 15
-592 l0 -103 581 0 581 0 -6 27 c-3 16 -9 44 -11 63 -3 19 -10 39 -15 44 -4 4
-6 15 -3 22 6 15 -22 152 -40 199 -6 16 -12 36 -12 45 -4 46 -6 51 -16 44 -8
-5 -10 0 -6 17 7 28 -8 102 -21 107 -5 1 -6 16 -4 32 3 22 1 29 -9 27 -8 -2
-11 -2 -6 0 11 7 8 36 -8 57 -8 10 -12 23 -8 29 3 6 1 7 -5 3 -7 -4 -10 2 -10
16 3 56 -2 80 -17 75 -11 -5 -13 0 -8 25 4 22 3 29 -5 24 -8 -5 -12 2 -13 21
-1 17 -3 21 -6 11 -2 -10 -11 -18 -19 -18 -18 0 -18 14 1 30 9 7 15 23 13 34
-2 12 -6 19 -9 16 -3 -3 -13 1 -21 8 -13 10 -18 9 -28 -3 -6 -8 -10 -20 -7
-27 4 -8 6 -7 6 5 1 9 8 17 16 17 19 0 19 -14 0 -30 -11 -9 -13 -26 -8 -71 3
-32 3 -59 -1 -59 -4 0 -24 16 -44 35 -30 29 -34 37 -22 45 8 5 11 13 6 17 -5
4 -11 2 -13 -4 -12 -33 -23 -7 -23 51 0 40 -4 66 -11 68 -9 3 -9 12 -2 33 8
23 6 36 -5 53 -13 19 -13 28 -4 43 10 15 9 24 -4 44 -11 17 -15 39 -12 67 3
24 -1 60 -9 82 -7 21 -13 53 -13 71 0 19 -6 35 -12 38 -10 3 -11 13 -2 45 6
23 8 39 4 37 -24 -15 -71 312 -90 625 -12 195 -36 403 -49 429 -16 31 -32 144
-26 180 4 26 15 42 40 59 48 31 61 28 106 -20 21 -23 39 -36 39 -29 0 23 -89
313 -121 393 -33 82 -76 157 -115 198 -13 14 -25 36 -26 50 -3 23 0 24 92 37
52 7 126 24 163 38 38 14 79 25 92 25 14 0 45 5 70 12 28 8 48 9 53 3 5 -6 -1
-72 -15 -150 -28 -171 -42 -454 -24 -508 15 -43 39 -48 79 -16 l27 21 -32 -6
c-20 -5 -34 -3 -38 4 -14 23 -20 87 -19 215 1 131 19 246 51 323 25 61 98 163
171 238 66 69 141 166 176 229 9 17 25 44 34 60 10 17 40 71 67 120 64 120
223 358 261 390 6 6 37 42 69 80 32 39 61 72 64 75 20 17 94 138 130 213 91
185 176 285 268 314 78 25 134 87 162 181 12 42 14 59 25 184 3 32 10 66 15
75 6 10 21 42 35 71 14 29 31 59 38 66 7 8 20 24 28 36 15 22 28 39 65 82 11
12 38 46 59 73 22 28 43 52 48 53 4 2 8 9 8 15 0 7 10 24 23 37 12 14 38 48
56 75 19 28 38 52 41 55 6 4 102 151 156 235 10 17 28 51 40 76 25 54 69 84
133 92 52 6 73 27 89 83 8 26 32 62 68 100 78 83 97 129 98 234 0 107 -32 211
-81 265 -32 35 -53 39 -53 9 0 -8 13 -17 30 -20 16 -4 27 -10 25 -15 -3 -4 0
-11 8 -16 17 -11 48 -93 35 -93 -5 0 -12 9 -15 20 -3 11 -9 20 -14 20 -5 0 -6
6 -3 13 2 7 -9 20 -26 30 -16 10 -30 22 -30 28 0 5 -6 9 -14 9 -11 0 -13 -9
-9 -35 4 -22 2 -35 -5 -35 -6 0 -9 -7 -5 -16 4 -12 2 -15 -8 -12 -9 3 -15 21
-16 48 -2 51 -23 73 -61 63 -19 -4 -31 2 -58 32 -19 21 -34 48 -34 60 0 12 -9
30 -20 40 -11 10 -20 25 -20 33 0 8 -6 12 -15 8 -11 -4 -15 1 -15 19 0 15 -7
26 -19 30 -11 3 -24 18 -29 33 -8 22 -9 18 -7 -25 2 -32 12 -66 25 -88 12 -19
20 -43 18 -52 -2 -13 -10 -7 -27 22 -14 22 -24 46 -22 53 1 9 -6 11 -23 6 -23
-5 -28 -1 -46 37 -11 24 -27 55 -34 68 l-14 24 -4 -24 -4 -24 -14 27 c-7 15
-21 30 -31 33 -20 7 -59 -22 -59 -44 0 -9 -11 -2 -28 16 -15 18 -40 35 -55 38
-19 5 -26 12 -23 24 8 23 -8 44 -30 39 -21 -4 -79 55 -70 71 3 5 -1 12 -10 15
-11 4 -13 13 -9 27 6 18 4 21 -9 16 -9 -4 -16 -2 -16 4 0 11 -108 119 -119
119 -3 0 -13 5 -21 10 -12 7 -8 15 20 41 l35 31 -31 -6 c-23 -5 -33 -3 -37 7
-6 17 -82 58 -91 50 -12 -12 -6 -24 17 -33 l22 -9 -22 0 c-29 -1 -41 -21 -12
-21 17 0 19 -3 10 -13 -8 -10 -4 -20 19 -42 33 -32 38 -45 15 -45 -22 0 -18
-31 5 -37 11 -3 20 -9 20 -13 0 -5 7 -16 16 -24 26 -27 11 -39 -19 -16 -16 13
-36 20 -47 17 -11 -3 -23 -1 -26 4 -3 5 0 9 7 9 7 0 10 2 7 5 -10 10 -37 -7
-40 -26 -2 -13 -7 -16 -17 -10 -12 8 -12 12 -2 25 12 14 10 16 -9 16 -16 0
-21 4 -16 16 5 13 2 15 -16 10 -50 -15 -73 -12 -76 11 -6 38 -67 96 -104 97
-34 2 -78 31 -78 53 0 7 -18 17 -40 23 -21 6 -42 15 -45 20 -3 6 -17 10 -31
10 -14 0 -35 6 -47 14 -12 8 -43 17 -69 21 -31 4 -48 11 -48 20 0 7 -8 16 -17
18 -17 4 -17 5 0 6 9 0 17 7 17 15 0 18 -76 46 -125 46 -37 0 -38 1 -19 15 15
10 20 22 17 40 -3 14 -10 25 -15 25 -5 0 -17 8 -26 17 -12 12 -13 18 -4 21 18
6 4 22 -19 22 -10 0 -19 5 -19 10 0 6 5 10 11 10 5 0 7 5 4 10 -3 6 3 10 14
10 12 0 21 4 21 9 0 5 17 12 37 16 21 4 43 15 51 26 8 11 26 20 45 20 27 1 25
3 -12 9 -24 4 -50 15 -57 25 -10 13 -21 16 -43 12 -21 -5 -35 -1 -47 11 -38
37 -79 62 -106 62 -15 0 -28 4 -28 9 0 5 -12 12 -27 14 -16 2 -4 5 25 6 39 1
54 -3 58 -14 9 -21 24 -19 24 4 0 10 -7 22 -16 25 -11 4 -14 13 -10 31 6 24 4
25 -34 25 l-40 0 0 40 c0 22 5 40 10 40 6 0 10 7 10 15 0 12 -9 13 -44 9 -36
-5 -44 -4 -48 12 -4 17 -16 19 -126 19 -66 0 -120 1 -119 2 12 11 113 40 130
36 21 -4 21 -3 -3 11 -14 8 -24 17 -22 20 5 14 1 20 -6 9 -5 -7 -38 -14 -77
-17 -78 -5 -128 2 -119 15 3 5 1 9 -5 9 -5 0 -16 3 -25 6 -19 7 -22 -22 -3
-30 6 -3 -1 -3 -18 1 -38 7 -43 12 -26 22 19 12 -5 24 -25 13 -18 -10 -84 6
-84 20 0 5 -6 8 -12 7 -7 -1 -24 2 -38 8 -14 6 -32 13 -40 16 -8 3 15 6 53 6
51 1 67 -2 67 -13 0 -17 145 -30 205 -18 30 6 16 8 -62 9 -81 0 -105 3 -118
16 -15 16 -15 17 8 17 13 0 36 9 50 20 15 12 27 16 29 9 2 -7 14 -8 38 -1 l35
9 -50 7 c-77 10 -147 18 -179 20 -16 0 -31 7 -33 14 -5 14 139 16 220 3 26 -4
47 -4 47 1 0 4 -4 8 -10 8 -18 0 -11 20 8 20 13 1 11 4 -8 16 l-25 15 27 -5
c15 -4 30 -2 33 4 9 15 73 12 145 -8 36 -10 79 -15 95 -12 l30 6 -30 7 c-131
29 -182 37 -265 42 -52 4 -100 8 -107 10 -6 2 -13 2 -15 1z m1447 -2335 c130
1 157 0 168 -9 13 -10 38 -16 149 -34 54 -9 68 -16 77 -34 13 -29 11 -30 -71
-45 -55 -10 -72 -10 -100 2 -18 7 -36 13 -41 11 -4 -1 -22 4 -41 12 -21 9 -76
14 -147 15 -63 1 -118 6 -123 11 -6 6 -24 10 -40 10 l-31 1 30 24 c17 14 38
25 47 25 9 0 20 5 23 10 4 6 14 9 23 6 10 -3 44 -5 77 -5z m469 -213 c8 -13 6
-21 -7 -36 -10 -11 -15 -26 -11 -35 11 -28 -41 -103 -86 -124 -22 -10 -38 -23
-35 -30 4 -12 -19 -25 -29 -16 -3 4 -1 12 5 19 5 7 11 27 12 46 1 18 6 39 11
46 4 7 3 18 -2 25 -20 24 -17 62 9 89 37 39 112 48 133 16z m-3681 -578 c7
-28 44 -26 50 3 2 12 4 -33 5 -100 0 -68 -4 -123 -9 -123 -5 0 -9 -17 -9 -37
0 -21 -7 -51 -15 -67 -8 -15 -15 -39 -15 -53 0 -14 -5 -23 -11 -21 -13 4 -13
9 1 72 6 27 8 51 5 54 -3 3 -5 -2 -5 -11 0 -9 -4 -17 -10 -17 -5 0 -13 -18
-16 -40 -6 -36 -8 -38 -20 -23 -10 15 -15 16 -26 5 -9 -10 -13 -47 -12 -138 1
-68 -2 -124 -7 -124 -5 0 -9 18 -9 40 0 37 -2 40 -27 40 -28 0 -63 25 -63 46
0 7 8 26 17 43 14 23 15 33 6 42 -8 8 -16 6 -32 -10 -12 -12 -21 -25 -21 -31
0 -5 -4 -10 -9 -10 -5 0 -17 -3 -27 -7 -13 -5 -10 2 9 23 15 16 30 37 33 47 3
9 11 17 17 18 7 0 2 4 -10 9 -32 13 -31 44 1 38 30 -6 36 6 36 68 0 39 4 47
30 62 34 19 40 37 10 29 -11 -3 -20 0 -20 5 0 6 12 8 30 5 22 -5 30 -3 30 8 0
8 7 15 15 15 8 0 15 7 15 15 0 9 7 18 15 21 24 10 17 24 -11 24 -14 0 -32 6
-39 14 -12 12 -9 15 23 18 20 3 39 1 40 -4 3 -7 66 -38 78 -38 2 0 4 7 4 15 0
10 -10 15 -34 15 -36 0 -46 12 -46 56 0 29 25 32 33 4z m2304 -1268 c-10 -10
-17 -22 -17 -27 0 -5 -7 -17 -17 -27 -15 -17 -15 -18 5 -18 12 0 22 -4 22 -10
0 -5 -20 -10 -44 -10 -28 0 -48 -6 -57 -16 -12 -15 -11 -16 7 -10 11 3 44 7
73 7 46 1 51 4 49 22 -4 25 29 48 41 28 6 -8 2 -20 -9 -31 -9 -9 -26 -31 -36
-49 -20 -33 -34 -40 -34 -16 0 11 -11 15 -42 15 -39 0 -40 -1 -22 -15 10 -8
26 -15 34 -15 8 0 2 -8 -15 -17 -44 -24 -55 -38 -55 -72 0 -57 -77 -117 -136
-106 -59 11 -31 48 33 45 54 -4 83 8 83 34 0 34 -17 53 -32 38 -18 -18 -45
-15 -50 6 -6 21 34 72 55 72 7 0 22 6 33 14 18 14 18 14 0 13 -30 -3 -29 18 4
53 16 17 30 40 30 49 0 17 71 61 99 61 11 0 11 -4 -2 -18z m163 -282 c0 -5 -4
-12 -10 -15 -5 -3 -10 -15 -10 -25 0 -13 -9 -22 -25 -26 -25 -6 -35 -39 -14
-46 14 -5 -27 -75 -51 -88 -10 -6 -26 -7 -35 -4 -11 5 -18 0 -22 -14 -3 -15
-16 -24 -39 -28 -35 -6 -47 -24 -17 -24 12 0 14 -3 7 -10 -6 -6 -18 -8 -27 -5
-29 12 -28 36 5 66 29 26 30 29 11 29 -16 0 -20 5 -16 20 7 26 131 140 154
140 5 0 22 11 36 24 24 22 53 25 53 6z"/>
<path d="M4204 8430 c24 -53 37 -171 23 -210 -3 -8 -8 -37 -12 -63 -5 -36 -10
-47 -20 -43 -18 6 -30 -10 -14 -19 5 -4 8 -13 6 -19 -3 -7 -2 -18 3 -25 10
-17 -16 -103 -35 -114 -8 -4 -15 -14 -15 -20 0 -7 -9 -20 -20 -30 -14 -12 -20
-29 -20 -59 0 -24 -9 -71 -20 -105 -19 -63 -31 -90 -100 -238 -21 -44 -41
-103 -44 -130 -4 -28 -18 -114 -32 -192 -40 -235 -37 -244 71 -207 39 13 92
26 118 30 72 10 46 19 -56 19 l-92 1 -2 106 c-2 177 48 335 213 676 90 184
125 320 126 488 0 80 -19 129 -72 179 l-31 30 25 -55z"/>
<path d="M9623 8419 c-31 -9 -54 -29 -34 -29 6 0 11 -4 11 -10 0 -5 -28 -10
-62 -12 -68 -3 -86 -20 -43 -40 24 -11 25 -13 8 -19 -16 -6 -15 -8 10 -18 29
-11 37 -31 12 -31 -9 0 -18 7 -22 15 -3 10 -16 15 -32 14 -58 -4 -83 1 -78 15
4 9 -2 17 -13 21 -10 3 -20 14 -22 23 -3 14 -6 13 -17 -6 -9 -17 -9 -27 -2
-36 6 -7 8 -16 4 -19 -3 -4 -1 -7 5 -7 7 0 12 -6 12 -13 0 -19 61 -38 101 -32
33 5 33 5 7 -6 -16 -6 -28 -15 -28 -20 0 -6 -7 -6 -18 0 -25 13 -75 2 -68 -16
3 -8 2 -23 -4 -32 -8 -16 -5 -18 30 -14 24 3 40 1 40 -6 0 -11 -39 -51 -51
-51 -4 0 -10 -7 -13 -16 -4 -9 -2 -13 5 -8 8 4 8 1 0 -13 -9 -17 -5 -23 28
-41 50 -28 68 -13 44 37 -15 30 -15 34 -1 42 9 5 19 20 22 34 4 14 10 25 16
25 14 0 22 -38 12 -56 -7 -12 -5 -22 7 -35 22 -24 141 -90 151 -84 4 2 15 -4
25 -15 12 -13 31 -20 55 -20 49 0 70 -22 35 -38 -14 -6 -25 -15 -25 -20 0 -17
37 -42 54 -36 20 8 20 13 -1 37 -18 20 -17 20 17 13 19 -3 37 -11 38 -16 2 -6
10 -10 17 -10 15 0 67 -44 65 -56 -1 -3 9 -12 21 -18 33 -16 36 -36 5 -36 -30
0 -26 -25 6 -36 14 -4 18 -12 14 -28 -7 -27 1 -38 37 -54 19 -8 27 -17 23 -28
-3 -8 1 -17 10 -21 8 -3 14 -15 12 -26 -2 -17 4 -22 32 -28 19 -4 49 -5 67 -1
26 6 30 10 22 22 -8 11 -12 12 -16 3 -7 -18 -23 -16 -23 2 0 9 -11 28 -25 43
-14 15 -25 36 -25 47 0 11 -9 34 -20 50 -11 17 -20 38 -20 48 0 21 -47 124
-61 132 -5 4 -9 10 -9 16 0 14 27 11 34 -3 5 -13 2 17 -9 65 -3 15 -1 27 4 27
5 0 7 9 4 21 -5 17 -2 20 13 17 26 -4 32 -48 7 -48 -16 -1 -16 -2 3 -18 11
-10 26 -38 34 -63 7 -25 28 -62 47 -84 36 -42 42 -35 18 22 -19 45 -19 44 10
37 27 -7 33 4 13 24 -9 9 -8 12 5 12 10 0 17 -8 17 -19 0 -12 11 -23 30 -30
33 -11 39 -27 13 -34 -14 -4 -12 -5 5 -6 12 0 22 -6 22 -12 0 -5 -8 -9 -17 -8
-33 3 -35 -1 -19 -26 9 -14 12 -25 7 -25 -13 0 2 -63 17 -68 6 -2 12 1 12 7 0
26 35 5 44 -26 6 -19 3 -23 -12 -23 -11 0 -23 6 -25 13 -3 6 -6 0 -6 -15 -1
-16 4 -28 9 -28 6 0 10 -11 10 -24 0 -13 9 -34 20 -47 l20 -24 -6 28 c-12 54
-10 61 21 68 17 4 24 7 18 8 -21 2 -15 29 7 36 11 3 20 12 20 19 0 17 -26 40
-37 33 -4 -3 -16 6 -26 19 -15 21 -16 24 -2 24 8 0 16 -6 16 -12 1 -7 5 1 9
17 8 30 8 30 9 3 1 -20 7 -27 24 -30 15 -2 21 -9 19 -22 -2 -10 2 -23 10 -27
11 -7 10 -11 -2 -19 -12 -7 -9 -12 18 -21 21 -7 32 -18 32 -30 0 -10 5 -19 10
-19 6 0 10 -6 10 -14 0 -15 18 -31 26 -24 2 3 -8 27 -23 54 -15 27 -29 58 -31
69 -9 63 -153 275 -290 430 -31 34 -51 49 -66 48 -19 -2 -19 -2 -3 5 17 7 16
11 -12 41 l-30 32 -27 -24 c-29 -27 -54 -26 -54 3 0 13 7 16 28 13 20 -2 22
-1 9 5 -10 4 -18 12 -17 17 1 6 -9 13 -22 17 -16 4 -18 6 -5 7 9 1 17 6 17 11
0 13 -16 13 -39 -2 -27 -17 -54 -3 -46 23 6 17 4 21 -8 16 -11 -4 -34 13 -70
49 -58 59 -98 72 -164 53z"/>
<path d="M3923 8353 c-11 -32 -33 -96 -48 -143 -48 -146 -121 -292 -231 -458
-31 -48 -32 -52 -10 -35 14 10 26 23 26 29 0 6 9 19 20 29 11 10 20 23 20 29
0 25 130 186 150 186 4 0 25 -19 45 -42 36 -39 39 -40 51 -23 19 26 17 55 -6
90 -14 21 -16 33 -8 42 7 8 7 13 0 13 -14 0 -22 38 -15 71 4 22 11 29 28 29
45 0 36 47 -14 73 -29 14 -30 29 -5 41 15 7 19 20 19 67 0 33 -1 59 -1 59 -1
0 -10 -26 -21 -57z"/>
<path d="M8311 7643 c-19 -3 -40 -11 -48 -19 -8 -8 -26 -14 -41 -15 -15 0 -36
-4 -47 -9 -17 -7 -16 -9 10 -11 22 -1 14 -4 -25 -11 -30 -5 -65 -10 -78 -10
-13 0 -21 -3 -18 -6 3 -3 1 -11 -5 -18 -7 -8 -6 -14 2 -19 6 -4 14 -3 18 3 9
15 50 20 50 7 0 -5 -17 -15 -37 -21 l-37 -12 41 -1 c22 -1 46 5 53 12 11 10
12 9 6 -3 -5 -8 4 -4 18 9 l27 24 69 -16 c80 -20 95 -21 86 -7 -12 19 45 10
62 -10 10 -11 25 -20 34 -20 9 0 22 -7 30 -16 7 -8 21 -13 32 -10 11 2 26 -1
35 -7 34 -27 92 -91 92 -103 0 -7 14 -22 30 -34 17 -12 30 -28 30 -36 0 -8 5
-14 11 -14 5 0 7 -4 4 -10 -3 -5 -2 -10 4 -10 6 0 14 -12 17 -27 4 -16 16 -34
26 -41 21 -16 24 -32 4 -32 -8 0 -26 15 -40 33 -14 17 -36 42 -47 53 -12 12
-19 26 -15 32 3 5 -2 12 -12 16 -34 12 -97 55 -94 65 1 6 -9 11 -21 11 -28 0
-80 24 -97 45 -6 7 -25 17 -41 20 -16 4 -31 11 -34 16 -9 13 -59 11 -89 -4
-14 -8 -23 -16 -20 -19 2 -3 -37 -10 -88 -16 -51 -5 -104 -13 -118 -17 -25 -6
-25 -6 3 12 15 10 27 21 27 25 0 11 -38 20 -57 14 -10 -3 -31 1 -46 9 -30 15
-91 12 -155 -7 l-33 -10 43 -38 c24 -22 48 -39 53 -40 15 0 69 -61 76 -85 4
-17 13 -20 50 -18 l44 2 -35 -13 c-30 -12 -32 -15 -16 -21 12 -5 31 -1 54 11
23 12 58 19 106 20 39 1 87 7 106 13 28 9 36 8 43 -4 4 -8 19 -15 32 -15 13 0
27 -5 31 -12 5 -7 0 -9 -14 -6 -12 3 -28 1 -37 -6 -15 -10 -13 -14 12 -26 15
-8 61 -34 101 -57 41 -25 85 -43 102 -43 21 0 30 -5 30 -17 0 -9 15 -31 33
-48 17 -18 38 -40 46 -49 7 -10 24 -16 40 -15 33 4 51 -7 51 -31 0 -39 97 -74
125 -46 8 8 15 23 15 34 0 11 7 22 15 26 8 3 12 12 9 20 -4 11 4 16 33 21 21
3 46 10 55 16 23 12 85 12 93 -1 10 -16 23 -12 21 6 0 10 17 27 45 43 70 39
80 50 69 71 -6 12 -17 16 -30 13 -11 -3 -40 -2 -65 1 -48 8 -59 27 -27 45 16
10 16 10 -1 11 -10 0 -28 -6 -40 -14 -28 -18 -81 -10 -73 11 8 20 -13 156 -25
168 -8 7 -9 1 -4 -22 5 -26 3 -33 -9 -33 -9 0 -16 4 -16 9 0 5 -11 22 -24 38
-13 15 -29 45 -35 66 -7 20 -16 37 -20 37 -15 0 -51 37 -51 52 0 11 -7 14 -25
10 -14 -2 -25 0 -25 6 0 17 -51 62 -82 74 -16 5 -28 16 -28 24 0 8 -6 11 -15
8 -8 -4 -12 -10 -9 -15 14 -23 -90 1 -107 24 -7 10 -94 4 -121 -8 -10 -4 -26
-4 -35 -1 -15 6 -15 8 -3 16 8 6 11 9 5 8 -5 -1 -25 -3 -44 -5z"/>
<path d="M3404 7348 c-26 -40 -50 -75 -54 -78 -17 -12 -91 -131 -101 -161 -20
-64 -51 -116 -131 -225 -45 -60 -87 -113 -93 -119 -23 -20 -72 -91 -93 -136
-33 -68 -40 -126 -42 -319 -1 -171 -3 -201 -15 -341 -12 -144 -48 -289 -109
-434 -13 -33 -30 -89 -36 -125 -7 -36 -21 -108 -31 -160 -12 -65 -15 -96 -7
-101 7 -4 5 -17 -5 -40 -8 -19 -18 -51 -21 -71 -4 -20 -11 -38 -15 -40 -5 -2
-12 -18 -14 -36 -3 -19 -12 -41 -20 -50 -8 -10 -24 -45 -36 -80 -12 -34 -25
-70 -30 -80 -5 -9 -13 -26 -17 -37 -6 -15 -9 -8 -13 30 l-6 50 -14 -70 c-17
-84 -47 -169 -66 -185 -7 -6 -23 -12 -35 -13 -20 -1 -20 -2 -4 -14 10 -7 21
-13 25 -13 14 0 15 -36 2 -82 -16 -57 -4 -117 30 -151 l22 -22 3 33 c3 31 5
32 50 32 44 0 48 3 70 40 12 21 22 45 22 52 0 7 7 21 14 30 12 16 16 16 67 -2
29 -11 57 -20 61 -20 11 0 10 48 -1 54 -4 3 -11 23 -15 45 -3 22 -10 41 -16
43 -6 2 -6 17 2 41 9 29 16 37 35 37 14 0 31 -7 40 -15 28 -29 47 -14 51 40 2
27 9 59 14 69 10 18 12 18 23 3 7 -9 20 -17 31 -17 15 0 12 6 -14 33 -18 18
-32 41 -32 50 0 9 -6 17 -14 17 -19 0 -29 30 -12 36 23 9 87 -27 131 -73 46
-47 72 -49 100 -7 20 30 60 32 68 3 3 -11 15 -23 26 -26 15 -4 21 -13 21 -33
0 -21 10 -37 37 -59 21 -17 32 -31 25 -31 -17 0 -15 -29 3 -36 8 -4 15 -10 15
-15 0 -13 51 -69 63 -69 5 0 24 -17 42 -37 39 -44 79 -65 154 -83 29 -7 65
-19 80 -26 14 -8 34 -14 44 -14 9 0 17 -7 17 -15 0 -8 5 -15 11 -15 5 0 7 -5
3 -11 -4 -8 -9 -8 -17 0 -13 13 -30 15 -23 2 3 -5 -1 -14 -9 -21 -8 -7 -15
-21 -15 -31 0 -19 -9 -23 -42 -20 -9 1 -19 -7 -23 -18 -6 -21 -63 -61 -87 -61
-20 0 -68 -52 -68 -75 0 -10 5 -34 12 -52 9 -24 18 -33 35 -33 16 0 23 -6 23
-20 0 -27 -33 -26 -52 2 -11 16 -20 20 -41 14 -23 -5 -27 -12 -27 -41 0 -19 5
-35 11 -35 6 0 7 -9 3 -22 -4 -13 -9 -36 -10 -53 -2 -16 -8 -49 -15 -72 -15
-50 -3 -73 36 -65 36 6 55 50 55 122 0 53 2 60 19 60 31 0 64 -56 69 -116 6
-71 -12 -138 -52 -199 -46 -71 -96 -178 -96 -208 0 -20 12 -34 54 -62 71 -47
113 -90 119 -123 3 -17 -4 -46 -19 -78 -13 -28 -24 -58 -24 -66 0 -8 -42 -57
-94 -109 -51 -52 -101 -107 -109 -124 -9 -16 -26 -41 -37 -54 -18 -21 -23 -22
-48 -12 -34 15 -84 81 -107 143 -9 26 -26 55 -37 65 -18 16 -20 16 -49 -15
-17 -18 -38 -32 -48 -32 -29 0 -73 55 -101 127 -14 38 -44 97 -67 133 -140
228 -223 353 -348 530 -167 235 -195 278 -230 351 -19 40 -40 98 -46 128 l-11
56 -144 -1 c-134 -2 -148 -4 -197 -28 -222 -110 -529 -546 -688 -976 -77 -210
-91 -244 -107 -262 -8 -10 -12 -18 -9 -18 8 0 -81 -130 -115 -168 -151 -172
-192 -233 -207 -302 -13 -60 -39 -112 -78 -158 -34 -41 -68 -44 -138 -12 -115
52 -125 48 -131 -63 -4 -79 -36 -189 -82 -284 -16 -33 -34 -82 -41 -108 -17
-66 -50 -121 -111 -180 -115 -112 -111 -75 -114 -1053 l-1 -602 3356 0 3355 0
-17 108 c-24 149 -102 551 -149 772 -22 102 -67 322 -100 490 -72 362 -149
713 -197 900 -145 571 -205 794 -233 880 -10 30 -34 111 -54 180 -44 156 -80
261 -193 565 -50 132 -106 290 -125 350 -117 361 -115 345 -58 451 38 71 117
199 143 232 5 6 7 12 4 12 -3 0 -25 -28 -50 -62 -93 -131 -117 -148 -205 -148
-34 0 -79 -7 -99 -15 -33 -14 -152 -90 -163 -105 -3 -3 -36 -31 -75 -62 -81
-64 -154 -104 -207 -113 -21 -3 -50 -16 -65 -29 -46 -39 -127 -50 -363 -50
-118 -1 -224 3 -235 8 -11 4 -35 10 -54 12 -18 2 -41 10 -51 19 -9 8 -21 15
-26 15 -6 0 -21 15 -34 33 -21 27 -24 43 -24 102 0 40 11 106 24 155 26 97 74
210 89 210 15 0 33 65 37 136 6 101 19 119 125 166 41 18 79 36 84 41 6 4 51
31 100 59 50 28 92 54 95 57 3 4 22 17 43 30 21 13 44 33 52 45 33 53 56 452
45 801 l-3 80 -8 -64 c-6 -47 -13 -67 -29 -78 -12 -8 -19 -21 -16 -29 3 -7 -5
-26 -18 -41 -20 -24 -23 -37 -20 -88 2 -33 9 -79 15 -102 6 -23 9 -51 6 -62
-5 -19 11 -90 32 -143 11 -28 4 -95 -10 -104 -5 -3 -23 4 -39 16 -22 16 -29
27 -25 41 7 21 -5 25 -23 7 -12 -12 -84 -3 -190 24 -52 13 -166 5 -188 -13
-12 -10 -15 -24 -10 -60 7 -50 -1 -59 -46 -59 -19 0 -20 -4 -15 -60 l5 -60
-53 -47 c-66 -59 -77 -96 -38 -115 28 -14 28 -14 25 -103 -3 -92 -26 -217 -46
-246 -11 -16 -16 -19 -35 -19 -5 0 -19 -13 -31 -30 -16 -22 -17 -28 -6 -24 12
5 16 -1 16 -24 0 -17 7 -37 15 -45 13 -13 12 -18 -5 -40 -11 -13 -25 -45 -31
-70 -11 -39 -14 -43 -27 -31 -9 9 -12 25 -9 42 5 29 -7 62 -24 62 -5 0 -15
-12 -22 -26 -11 -26 -12 -26 -17 -5 l-5 21 -40 -20 c-49 -26 -196 -31 -223 -8
-9 8 -29 19 -44 26 -16 6 -28 18 -28 27 0 10 -10 15 -27 15 -22 1 -32 8 -45
37 -13 28 -15 39 -5 45 8 5 0 19 -27 47 l-38 39 35 36 c20 20 43 36 52 36 11
0 15 10 15 35 0 19 8 44 18 54 35 39 39 47 39 78 0 53 54 88 106 68 16 -7 16
-4 -3 39 -24 57 -31 166 -11 189 7 10 24 17 37 17 15 0 25 8 30 22 3 12 16 30
28 40 19 15 19 17 3 18 -17 0 -16 1 2 21 14 16 27 19 48 15 35 -7 63 8 46 25
-9 9 -8 15 4 27 14 14 13 18 -7 34 -12 10 -29 18 -37 18 -8 0 -11 5 -8 10 3 6
-5 10 -19 10 -13 0 -32 3 -42 7 -15 6 -17 0 -12 -58 3 -35 3 -55 -2 -44 -7 19
-7 19 -19 -3 -10 -19 -15 -21 -34 -10 -12 7 -25 12 -29 13 -13 0 -25 20 -44
70 -10 28 -27 57 -37 65 -10 8 -19 22 -21 30 -6 38 -31 90 -43 90 -7 0 -13 7
-13 15 0 14 -9 26 -71 93 -29 32 -36 49 -43 104 -11 89 -41 128 -101 128 -16
0 -25 6 -25 15 0 9 -9 15 -25 15 -14 0 -25 4 -25 9 0 4 -13 24 -30 42 -16 19
-37 55 -45 81 -9 26 -19 48 -23 50 -4 2 -18 27 -31 56 -14 28 -28 53 -33 53
-9 2 -25 5 -35 9 -5 1 -15 3 -23 4 -45 4 -31 112 21 163 16 16 29 32 29 37 0
5 6 16 14 25 8 9 26 28 39 43 13 14 27 32 31 40 3 7 22 33 41 58 19 25 46 70
61 100 40 86 66 134 80 151 8 8 14 19 14 23 0 16 74 112 96 124 17 9 24 21 24
42 0 17 -2 30 -5 30 -2 0 -25 -33 -51 -72z"/>
<path d="M7393 6833 c-7 -2 -13 -13 -13 -24 0 -12 -7 -19 -20 -19 -13 0 -20 7
-20 20 0 25 -28 27 -37 3 -4 -10 -11 -21 -15 -24 -5 -3 -6 -18 -2 -32 5 -21
12 -27 34 -27 21 0 29 6 34 25 4 16 11 23 18 19 9 -6 9 -9 0 -12 -25 -8 -11
-22 28 -28 22 -4 40 -10 40 -15 0 -5 12 -9 28 -10 21 0 17 -3 -18 -13 -25 -7
-55 -16 -67 -20 -19 -6 -23 -4 -23 13 0 12 -5 21 -11 21 -7 0 -9 -8 -4 -22 4
-13 8 -40 9 -60 2 -50 10 -55 35 -19 13 17 35 32 54 37 17 4 26 9 20 11 -30
10 -9 22 50 27 114 11 127 13 134 20 3 3 -1 6 -9 6 -9 0 -18 6 -21 14 -8 19
-75 30 -93 15 -11 -9 -18 -9 -26 -1 -8 8 -7 13 5 18 9 3 17 12 17 20 0 8 7 14
15 14 20 0 19 27 -1 38 -24 13 -66 2 -71 -19 -8 -28 -35 -24 -31 3 3 23 -14
32 -39 21z"/>
<path d="M8536 5793 c-3 -4 -59 -8 -124 -9 -68 -1 -130 -7 -147 -14 -16 -7
-45 -14 -63 -15 -18 -1 -43 -12 -56 -24 -18 -17 -37 -23 -73 -23 -26 0 -52 1
-58 2 -21 5 -35 -1 -35 -15 0 -8 3 -15 8 -15 4 0 14 -5 22 -10 13 -8 12 -11
-5 -24 -19 -14 -16 -15 38 -16 45 0 66 -6 95 -25 47 -32 63 -32 90 5 32 42 95
58 140 34 25 -13 35 -15 44 -6 15 15 46 15 87 1 26 -9 34 -19 43 -55 9 -33 15
-41 25 -33 7 6 29 15 49 19 41 9 65 -9 74 -58 4 -19 11 -27 25 -27 30 0 45
-13 45 -41 0 -17 8 -27 26 -34 24 -10 26 -14 20 -50 -3 -21 -15 -55 -27 -74
-11 -20 -18 -40 -14 -45 3 -6 31 -9 66 -6 43 4 66 1 80 -9 l21 -14 -21 -11
c-12 -7 -18 -17 -14 -27 5 -13 7 -13 23 1 9 8 26 15 38 15 26 0 30 27 6 44
-13 10 -8 25 41 121 40 78 58 123 59 155 2 25 6 62 11 83 6 31 4 37 -9 37 -9
0 -21 -11 -26 -25 -5 -14 -16 -25 -24 -25 -15 0 -67 39 -53 40 37 1 -122 80
-162 80 -22 0 -81 31 -81 43 0 4 -13 7 -29 7 -17 0 -33 5 -36 10 -3 6 -19 10
-34 10 -15 0 -36 7 -47 15 -22 16 -28 18 -38 8z"/>
<path d="M3920 5347 c0 -13 7 -32 15 -43 8 -10 15 -26 15 -35 0 -10 16 -31 35
-48 27 -24 45 -31 75 -31 39 0 40 1 40 36 0 30 -18 64 -34 64 -2 0 -32 18 -65
40 -69 46 -81 49 -81 17z"/>
<path d="M8517 5235 c-16 -8 -38 -15 -50 -15 -49 -1 -67 -5 -67 -16 0 -7 -8
-15 -17 -17 -16 -4 -16 -5 -1 -6 9 0 20 4 23 9 3 6 11 10 16 10 5 0 1 -9 -10
-21 -13 -14 -26 -19 -40 -14 -27 8 -27 -6 1 -24 19 -12 23 -11 33 3 16 21 32
20 44 -1 8 -15 13 -16 30 -5 12 6 29 12 38 12 16 1 16 2 -2 12 -19 11 -17 13
15 19 19 4 39 4 45 -1 9 -8 41 -14 58 -11 14 2 -26 52 -54 67 -34 17 -28 17
-62 -1z"/>
<path d="M8867 2654 c-1 -1 -65 -4 -142 -7 -89 -4 -157 -12 -186 -22 l-47 -16
13 -42 c101 -329 132 -436 167 -567 58 -224 144 -613 157 -715 7 -49 16 -96
21 -106 6 -9 17 -61 25 -116 8 -54 24 -134 35 -178 10 -44 26 -154 35 -245 8
-91 20 -208 25 -260 5 -52 12 -160 16 -239 l7 -143 1031 5 c567 4 1058 9 1091
11 33 3 96 8 140 11 80 5 143 16 164 29 11 7 10 30 -4 79 -3 12 -37 85 -75
162 -50 101 -78 173 -100 257 -32 125 -67 213 -103 262 -69 93 -97 175 -102
298 -6 144 -17 216 -46 323 -75 270 -217 454 -424 550 -77 35 -131 76 -140
105 -7 21 -45 35 -118 44 -59 7 -109 33 -167 86 -55 50 -103 76 -155 84 -56 9
-131 48 -212 109 -37 28 -70 54 -73 57 -3 3 -27 20 -55 38 -27 17 -54 35 -60
39 -33 26 -170 74 -248 87 -69 12 -459 28 -470 20z m743 -1273 c0 -8 15 -26
78 -97 15 -17 51 -50 81 -73 67 -52 76 -69 84 -157 4 -38 10 -79 13 -91 11
-42 -23 -26 -64 30 -21 28 -51 58 -65 66 -15 8 -27 17 -27 20 0 4 -14 24 -32
45 -28 34 -32 36 -41 20 -9 -15 -11 -15 -23 7 -7 13 -15 47 -18 74 -17 161
-17 165 -1 165 8 0 15 -4 15 -9z"/>
</g>
</svg>
